<?xml version="1.0" encoding="UTF-8"?>
<svg xmlns="http://www.w3.org/2000/svg" xmlns:xlink="http://www.w3.org/1999/xlink" viewBox="0 0 24 24" width="24px" height="24px">
<g id="surface45204494">
<path style=" stroke:none;fill-rule:nonzero;fill:rgb(80.000001%,80.000001%,80.000001%);fill-opacity:1;" d="M 22.398438 5.550781 C 21.632812 5.890625 20.8125 6.117188 19.949219 6.222656 C 20.832031 5.695312 21.507812 4.859375 21.824219 3.859375 C 21 4.347656 20.085938 4.703125 19.113281 4.898438 C 18.335938 4.066406 17.226562 3.546875 16 3.546875 C 13.644531 3.546875 11.734375 5.460938 11.734375 7.816406 C 11.734375 8.152344 11.769531 8.476562 11.84375 8.789062 C 8.296875 8.609375 5.152344 6.910156 3.046875 4.328125 C 2.679688 4.960938 2.46875 5.691406 2.46875 6.476562 C 2.46875 7.957031 3.222656 9.261719 4.367188 10.027344 C 3.667969 10.003906 3.011719 9.8125 2.433594 9.492188 C 2.433594 9.511719 2.433594 9.527344 2.433594 9.546875 C 2.433594 11.613281 3.90625 13.339844 5.859375 13.730469 C 5.5 13.828125 5.125 13.878906 4.734375 13.878906 C 4.460938 13.878906 4.191406 13.851562 3.929688 13.804688 C 4.472656 15.5 6.050781 16.734375 7.917969 16.769531 C 6.457031 17.914062 4.617188 18.59375 2.617188 18.59375 C 2.273438 18.59375 1.933594 18.574219 1.597656 18.535156 C 3.488281 19.746094 5.730469 20.453125 8.140625 20.453125 C 15.992188 20.453125 20.28125 13.949219 20.28125 8.308594 C 20.28125 8.125 20.277344 7.941406 20.269531 7.757812 C 21.105469 7.15625 21.828125 6.40625 22.398438 5.550781 Z M 22.398438 5.550781 "/>
</g>
</svg>
