<?xml version="1.0" encoding="UTF-8"?>
<svg xmlns="http://www.w3.org/2000/svg" xmlns:xlink="http://www.w3.org/1999/xlink" viewBox="0 0 24 24" width="24px" height="24px">
<g id="surface45205673">
<path style=" stroke:none;fill-rule:nonzero;fill:rgb(80.000001%,80.000001%,80.000001%);fill-opacity:1;" d="M 19.199219 3.199219 L 4.800781 3.199219 C 3.914062 3.199219 3.199219 3.914062 3.199219 4.800781 L 3.199219 19.199219 C 3.199219 20.085938 3.914062 20.800781 4.800781 20.800781 L 19.199219 20.800781 C 20.085938 20.800781 20.800781 20.085938 20.800781 19.199219 L 20.800781 4.800781 C 20.800781 3.914062 20.085938 3.199219 19.199219 3.199219 Z M 8.761719 17.601562 L 6.402344 17.601562 L 6.402344 10.007812 L 8.761719 10.007812 Z M 7.558594 8.921875 C 6.796875 8.921875 6.183594 8.304688 6.183594 7.542969 C 6.183594 6.785156 6.800781 6.167969 7.558594 6.167969 C 8.316406 6.167969 8.933594 6.785156 8.933594 7.542969 C 8.933594 8.304688 8.316406 8.921875 7.558594 8.921875 Z M 17.601562 17.601562 L 15.246094 17.601562 L 15.246094 13.90625 C 15.246094 13.027344 15.230469 11.894531 14.019531 11.894531 C 12.789062 11.894531 12.601562 12.851562 12.601562 13.84375 L 12.601562 17.601562 L 10.242188 17.601562 L 10.242188 10.007812 L 12.507812 10.007812 L 12.507812 11.042969 L 12.539062 11.042969 C 12.855469 10.445312 13.625 9.816406 14.773438 9.816406 C 17.160156 9.816406 17.601562 11.390625 17.601562 13.433594 Z M 17.601562 17.601562 "/>
</g>
</svg>
