<?xml version="1.0" encoding="utf-8"?>
<!-- Svg Vector Icons : http://www.onlinewebfonts.com/icon -->
<!DOCTYPE svg PUBLIC "-//W3C//DTD SVG 1.1//EN" "http://www.w3.org/Graphics/SVG/1.1/DTD/svg11.dtd">
<svg version="1.1" xmlns="http://www.w3.org/2000/svg" xmlns:xlink="http://www.w3.org/1999/xlink" x="0px" y="0px" viewBox="0 0 1000 1000" enable-background="new 0 0 1000 1000" xml:space="preserve">
<metadata> Svg Vector Icons : http://www.onlinewebfonts.com/icon </metadata>
<g><path d="M908,167.9H92c-45.2,0-82,36.8-82,82v500.2c0,45.4,36.8,82,82,82h816c45.4,0,82-36.6,82-82V249.9C990,204.7,953.4,167.9,908,167.9L908,167.9L908,167.9L908,167.9z M888.4,226.6L563,515.1c-28.4,25.3-49.4,37.9-63,37.9c-13.6,0-34.6-12.5-63-37.9L111.6,226.6H888.4L888.4,226.6L888.4,226.6L888.4,226.6z M71.1,731.8V279.9l254,222.9L71.1,731.8L71.1,731.8L71.1,731.8L71.1,731.8z M113.7,773.3l255.1-226.4l41.8,36.6c24.3,21.2,54.2,32.1,89.4,32.1c35.4,0,65.1-10.9,89.5-32.1l41.7-36.6l255.1,226.4H113.7L113.7,773.3L113.7,773.3L113.7,773.3z M929,731.8l-254-229.1l254-222.9L929,731.8L929,731.8L929,731.8L929,731.8z"/></g>
</svg>